<?xml version="1.0" encoding="iso-8859-1"?>
<!-- Generator: Adobe Illustrator 19.0.0, SVG Export Plug-In . SVG Version: 6.00 Build 0)  -->
<svg version="1.1" id="Capa_1" xmlns="http://www.w3.org/2000/svg" xmlns:xlink="http://www.w3.org/1999/xlink" x="0px" y="0px"
	 viewBox="0 0 432.262 432.262" style="enable-background:new 0 0 432.262 432.262;" xml:space="preserve">
<path style="fill:#FEDB41;" d="M419.232,221.351l3.03,26.45l-9.34,1.07l-65.33,7.49l-9.34,1.07l-3.03-26.44
	c-0.592-5.155,3.105-9.815,8.26-10.41l48.48-5.56l16.86-1.93C413.977,212.499,418.637,216.196,419.232,221.351L419.232,221.351z"/>
<path style="fill:#00EFD1;" d="M420.422,314.211c0.392,3.435-2.074,6.538-5.509,6.93c0,0-0.001,0-0.001,0l-11.19,1.28l-41.7,4.79
	c-3.437,0.393-6.543-2.073-6.94-5.51l-7.49-65.34l65.33-7.49L420.422,314.211z"/>
<path style="fill:#00ACEA;" d="M211.012,68.561h93.52v0.87c0,44.19,35.5,78.13,79.69,78.13l0.35-0.04l7.39,67.5l-48.48,5.56
	c-5.155,0.595-8.852,5.255-8.26,10.41l3.03,26.44l9.34-1.07l7.49,65.34c0.397,3.437,3.503,5.903,6.94,5.51l41.7-4.79l0.03,0.28
	l6.89,62.91l-147.55,31.66l-48.13-166.35h-0.79l-48.14,165.56l-144.39-40.35l6.54-53.14l0.07-0.6l42.01,4.82
	c3.437,0.393,6.543-2.073,6.94-5.51l7.49-65.34l9.34,1.07l3.03-26.44c0.592-5.155-3.105-9.815-8.26-10.41l-47.34-5.43l8.32-67.59
	c44.12-0.08,79.54-33.99,79.54-78.13v-0.87L211.012,68.561z"/>
<path style="fill:#FEDB41;" d="M375.922,68.561l8.65,78.96l-0.35,0.04c-44.19,0-79.69-33.94-79.69-78.13v-0.87L375.922,68.561z"/>
<path style="fill:#00EFD1;" d="M375.922,14.711v53.85h-71.39h-93.52h-81.69h-69.81v-53.85H375.922z"/>
<g>
	<path style="fill:#FEDB41;" d="M129.322,68.561v0.87c0,44.14-35.42,78.05-79.54,78.13l9.73-79L129.322,68.561z"/>
	<path style="fill:#FEDB41;" d="M88.802,220.581c5.155,0.595,8.852,5.255,8.26,10.41l-3.03,26.44l-9.34-1.07l-65.33-7.49l-9.34-1.07
		l3.03-26.45c0.595-5.155,5.255-8.852,10.41-8.26l18,2.06L88.802,220.581z"/>
</g>
<path style="fill:#00EFD1;" d="M84.692,256.361l-7.49,65.34c-0.397,3.437-3.503,5.903-6.94,5.51l-42.01-4.82l-10.88-1.25
	c-3.435-0.392-5.902-3.494-5.51-6.929c0,0,0-0.001,0-0.001l7.5-65.34L84.692,256.361z"/>
<path style="fill:#083863;" d="M430.092,254.021c1.65-2.077,2.407-4.723,2.105-7.358l-3.033-26.472
	c-1.26-10.617-10.853-18.227-21.479-17.038l-6.766,0.788L386.142,68.016V14.711c-0.128-5.497-4.689-9.849-10.186-9.721
	c-0.011,0-0.023,0.001-0.034,0.001H59.512c-5.522,0-10.37,4.2-10.37,9.72v53.238L32.564,204.091l-8.057-0.934
	c-10.625-1.192-20.211,6.436-21.436,17.057l-3.007,26.45c-0.594,5.257,3.008,10.067,8.22,10.975l-6.362,55.443
	C0.91,322,7.313,330.053,16.23,331.075l0.87,0.1l-5.383,43.734c-0.604,4.909,2.471,9.522,7.234,10.853l144.391,40.35
	c5.28,1.476,10.763-1.575,12.294-6.839l38.906-133.816l38.942,134.593c1.455,5.045,6.567,8.103,11.7,7l147.558-31.659
	c5.013-1.076,8.4-5.769,7.842-10.866l-5.836-53.3l1.292-0.149c8.923-1.014,15.334-9.069,14.321-17.991
	c-0.001-0.005-0.001-0.01-0.002-0.015l-6.363-55.433C426.402,257.217,428.57,255.931,430.092,254.021L430.092,254.021z
	 M404.127,259.945l5.933,51.686l-45.468,5.219l-5.926-51.693L404.127,259.945z M409.367,223.094l1.822,15.91l-64.14,7.354
	l-1.824-15.911L409.367,223.094z M373.332,137.194c-30.7-4.522-54.209-28.203-58.19-58.203h51.811L373.332,137.194z M69.142,24.991
	h297v34h-297V24.991z M68.356,78.991h50.35c-3.951,30-27.153,53.32-57.5,58.091L68.356,78.991z M22.917,223.091l64.142,7.353
	l-1.824,15.911l-64.14-7.354L22.917,223.091z M22.223,311.63l5.934-51.688l45.461,5.212l-5.926,51.697L22.223,311.63z
	 M399.723,377.724l-129.615,27.814l-45.539-157.361c-1.242-4.269-5.161-7.2-9.607-7.186h-0.79c-4.44-0.014-8.354,2.911-9.6,7.173
	l-45.377,156.04l-126.577-35.38l4.351-35.364l32.167,3.69c8.919,1.008,16.971-5.393,18-14.31l6.356-55.439
	c0.183,0.01,0.37,0.031,0.552,0.031c5.078-0.007,9.344-3.817,9.922-8.862l3.031-26.443c1.196-10.634-6.427-20.235-17.055-21.481
	l-37.323-4.278l6.062-49.021c42.825-4.045,75.961-36.356,80.186-78.356h62.275v83.58c0,5.523,4.477,10,10,10c5.523,0,10-4.477,10-10
	v-83.58h73.844c4.231,42,37.552,74.517,80.581,78.392l5.372,48.946l-38.614,4.373c-10.618,1.241-18.234,10.832-17.037,21.455
	l3.03,26.426c0.578,5.043,4.846,8.852,9.922,8.856c0.182,0,0.368-0.025,0.552-0.035l6.357,55.452
	c1.038,8.915,9.096,15.308,18.014,14.29l31.713-3.64L399.723,377.724z"/>
<g>
</g>
<g>
</g>
<g>
</g>
<g>
</g>
<g>
</g>
<g>
</g>
<g>
</g>
<g>
</g>
<g>
</g>
<g>
</g>
<g>
</g>
<g>
</g>
<g>
</g>
<g>
</g>
<g>
</g>
</svg>
