<?xml version="1.0" encoding="iso-8859-1"?>
<!-- Generator: Adobe Illustrator 19.0.0, SVG Export Plug-In . SVG Version: 6.00 Build 0)  -->
<svg version="1.1" id="Capa_1" xmlns="http://www.w3.org/2000/svg" xmlns:xlink="http://www.w3.org/1999/xlink" x="0px" y="0px"
	 viewBox="0 0 412.24 412.24" style="enable-background:new 0 0 412.24 412.24;" xml:space="preserve">
<path style="fill:#FEDB41;" d="M409.21,211.48l3.03,26.45L402.9,239l-65.33,7.49l-9.34,1.07l-3.03-26.44
	c-0.592-5.155,3.105-9.815,8.26-10.41l48.48-5.56l16.86-1.93C403.955,202.628,408.615,206.325,409.21,211.48L409.21,211.48z"/>
<path style="fill:#00EFD1;" d="M410.4,304.34c0.392,3.435-2.074,6.538-5.509,6.93c0,0-0.001,0-0.001,0l-11.19,1.28l-41.7,4.79
	c-3.437,0.393-6.543-2.073-6.94-5.51l-7.49-65.34L402.9,239L410.4,304.34z"/>
<path style="fill:#00ACEA;" d="M200.99,58.69h93.52v0.87c0,44.19,35.5,78.13,79.69,78.13l0.35-0.04l7.39,67.5l-48.48,5.56
	c-5.155,0.595-8.852,5.255-8.26,10.41l3.03,26.44l9.34-1.07l7.49,65.34c0.397,3.437,3.503,5.903,6.94,5.51l41.7-4.79l0.03,0.28
	l6.89,62.91L253.07,407.4l-48.13-166.35h-0.79l-48.14,165.56L11.62,366.26l6.54-53.14l0.07-0.6l42.01,4.82
	c3.437,0.393,6.543-2.073,6.94-5.51l7.49-65.34l9.34,1.07l3.03-26.44c0.592-5.155-3.105-9.815-8.26-10.41l-47.34-5.43l8.32-67.59
	c44.12-0.08,79.54-33.99,79.54-78.13v-0.87L200.99,58.69z"/>
<g>
	<path style="fill:#FEDB41;" d="M365.9,58.69l8.65,78.96l-0.35,0.04c-44.19,0-79.69-33.94-79.69-78.13v-0.87L365.9,58.69z"/>
	<path style="fill:#FEDB41;" d="M119.3,58.69v0.87c0,44.14-35.42,78.05-79.54,78.13l9.73-79L119.3,58.69z"/>
	<path style="fill:#FEDB41;" d="M78.78,210.71c5.155,0.595,8.852,5.255,8.26,10.41l-3.03,26.44l-9.34-1.07L9.34,239L0,237.93
		l3.03-26.45c0.595-5.155,5.255-8.852,10.41-8.26l18,2.06L78.78,210.71z"/>
</g>
<path style="fill:#00EFD1;" d="M74.67,246.49l-7.49,65.34c-0.397,3.437-3.503,5.903-6.94,5.51l-42.01-4.82l-10.88-1.25
	c-3.435-0.392-5.902-3.494-5.51-6.929c0,0,0-0.001,0-0.001L9.34,239L74.67,246.49z"/>
<path style="fill:#00CEB4;" d="M200.99,162.7c-5.523,0-10-4.477-10-10V58.69c0-5.523,4.477-10,10-10c5.523,0,10,4.477,10,10v94.01
	C210.99,158.223,206.513,162.7,200.99,162.7z"/>
<path style="fill:#00EFD1;" d="M365.9,4.84v53.85h-71.39h-93.52H119.3H49.49V4.84H365.9z"/>
<g>
</g>
<g>
</g>
<g>
</g>
<g>
</g>
<g>
</g>
<g>
</g>
<g>
</g>
<g>
</g>
<g>
</g>
<g>
</g>
<g>
</g>
<g>
</g>
<g>
</g>
<g>
</g>
<g>
</g>
</svg>
