<?xml version="1.0" encoding="iso-8859-1"?>
<!-- Generator: Adobe Illustrator 19.0.0, SVG Export Plug-In . SVG Version: 6.00 Build 0)  -->
<svg version="1.1" id="Capa_1" xmlns="http://www.w3.org/2000/svg" xmlns:xlink="http://www.w3.org/1999/xlink" x="0px" y="0px"
	 viewBox="0 0 432.245 432.245" style="enable-background:new 0 0 432.245 432.245;" xml:space="preserve">
<linearGradient id="SVGID_1_" gradientUnits="userSpaceOnUse" x1="216.1223" y1="467.2697" x2="216.1223" y2="-29.3103" gradientTransform="matrix(1 0 0 -1 0 433.9595)">
	<stop  offset="0" style="stop-color:#00EFD1"/>
	<stop  offset="1" style="stop-color:#00ACEA"/>
</linearGradient>
<path style="fill:url(#SVGID_1_);" d="M430.079,254.009c1.648-2.078,2.403-4.725,2.1-7.359l-3.033-26.445
	c-1.223-10.641-10.838-18.277-21.479-17.059l-6.764,0.788L386.13,68.005V14.697c-0.127-5.494-4.683-9.845-10.177-9.718
	c-0.013,0-0.026,0.001-0.039,0.001H59.502c-5.522,0-10.372,4.194-10.372,9.717v53.241L32.551,204.08l-8.055-0.934
	c-10.617-1.206-20.201,6.423-21.407,17.04c-0.001,0.006-0.001,0.012-0.002,0.018L0.066,246.65
	c-0.603,5.254,2.996,10.068,8.206,10.976l-6.356,55.386c-1.018,8.904,5.375,16.947,14.279,17.965
	c0.008,0.001,0.016,0.002,0.024,0.003l0.868,0.144l-5.384,43.756c-0.605,4.911,2.469,9.528,7.234,10.864l144.4,40.358
	c5.28,1.48,10.766-1.571,12.294-6.837l38.9-133.816l38.943,134.595c1.455,5.045,6.566,8.104,11.7,7L412.73,395.38
	c5.013-1.076,8.4-5.769,7.842-10.866l-5.836-53.3l1.3-0.15c8.917-1.035,15.313-9.092,14.3-18.011l-6.359-55.431
	C426.384,257.204,428.555,255.919,430.079,254.009L430.079,254.009z M410.048,311.624l-45.468,5.215l-5.929-51.69l45.468-5.214
	L410.048,311.624z M409.348,223.084l1.825,15.91l-64.135,7.356l-1.824-15.91L409.348,223.084z M373.322,137.189
	c-30.704-4.522-54.215-28.209-58.192-58.209h51.818L373.322,137.189z M69.13,24.98h297v34h-297V24.98z M68.346,78.98h50.349
	c-3.945,30-27.137,53.32-57.5,58.092L68.346,78.98z M22.911,223.08l64.134,7.356l-1.824,15.91l-64.135-7.356L22.911,223.08z
	 M22.211,311.62l5.929-51.689l45.468,5.214l-5.929,51.69L22.211,311.62z M399.711,377.715L270.095,405.53l-45.542-157.366
	c-1.242-4.269-5.161-7.2-9.607-7.184h-0.789c-4.44-0.015-8.355,2.91-9.6,7.172l-45.37,156.045L32.605,368.815l4.353-35.364
	l32.155,3.686c8.923,1.024,16.986-5.38,18.01-14.302c0-0.001,0-0.002,0-0.004l6.359-55.437c0.182,0.01,0.366,0.031,0.546,0.031
	c5.077-0.007,9.344-3.817,9.922-8.861l3.034-26.445c1.218-10.641-6.417-20.257-17.058-21.48l-37.318-4.28l6.062-49.017
	c42.839-4.04,75.97-36.362,80.186-78.362h62.274v83.578c0,5.523,4.477,10,10,10c5.523,0,10-4.477,10-10V78.98h73.841
	c4.229,42,37.554,74.521,80.587,78.4l5.372,48.94l-38.6,4.373c-10.619,1.195-18.258,10.771-17.064,21.39
	c0.002,0.016,0.004,0.033,0.006,0.049l3.034,26.439c0.58,5.043,4.846,8.852,9.922,8.858c0.18,0,0.364-0.023,0.546-0.033
	l6.359,55.436c1.02,8.919,9.077,15.322,17.996,14.302c0.005-0.001,0.01-0.001,0.015-0.002l31.718-3.638L399.711,377.715z"/>
<g>
</g>
<g>
</g>
<g>
</g>
<g>
</g>
<g>
</g>
<g>
</g>
<g>
</g>
<g>
</g>
<g>
</g>
<g>
</g>
<g>
</g>
<g>
</g>
<g>
</g>
<g>
</g>
<g>
</g>
</svg>
